<?xml version="1.0" encoding="UTF-8"?>
<svg width="121px" height="136px" viewBox="0 0 121 136" version="1.1" xmlns="http://www.w3.org/2000/svg" xmlns:xlink="http://www.w3.org/1999/xlink">
    <!-- Generator: Sketch 41 (35326) - http://www.bohemiancoding.com/sketch -->
    <title>Insta</title>
    <desc>Created with Sketch.</desc>
    <defs></defs>
    <g id="Page-1" stroke="none" stroke-width="1" fill="none" fill-rule="evenodd">
        <g id="Tablet-Portrait" transform="translate(-324.000000, -5229.000000)" stroke="#FFFFFF">
            <g id="Footer" transform="translate(-557.000000, 5015.000000)">
                <g id="Social-Icons" transform="translate(729.000000, 214.000000)">
                    <g id="Group-3">
                        <g id="Insta" transform="translate(153.975923, 2.000000)">
                            <path d="M110.827072,102.814759 L63.894459,130.196857 C60.5033136,132.175664 56.3258023,132.175664 52.9346569,130.196857 L6.00478425,102.814759 C2.61363881,100.835953 0.524883189,97.1810685 0.524883189,93.2234563 L0.524883189,38.4601823 C0.524883189,34.503493 2.61363881,30.8476857 6.00478425,28.8698026 L52.9346569,1.48862703 C56.3258023,-0.490179065 60.5033136,-0.490179065 63.894459,1.48862703 L110.827072,28.8698026 C114.218217,30.8476857 116.306973,34.503493 116.306973,38.4601823 L116.306973,93.2234563 C116.306973,97.1810685 114.218217,100.835953 110.827072,102.814759 L110.827072,102.814759 Z" id="Stroke-193" stroke-width="4" stroke-linecap="round"></path>
                            <path d="M83.8110681,89.5311001 C83.8110681,90.6220277 82.9351972,91.5052915 81.8574833,91.5052915 L34.9732765,91.5052915 C33.896476,91.5052915 33.0206051,90.6220277 33.0206051,89.5311001 L33.0206051,59.9200759 L40.8331174,59.9200759 C39.8165957,61.4004887 39.4722753,64.1628799 39.4722753,65.9155631 C39.4722753,76.4861163 48.0026546,85.0880159 58.4857053,85.0880159 C68.9751493,85.0880159 77.5037019,76.4861163 77.5037019,65.9155631 C77.5037019,64.1628799 77.2571064,61.4420215 75.9958158,59.9200759 L83.8110681,59.9200759 L83.8110681,89.5311001 L83.8110681,89.5311001 Z M58.4857053,53.7962987 C65.1255188,53.7962987 70.5095216,59.2232482 70.5095216,65.9155631 C70.5095216,72.6097238 65.1255188,78.0366733 58.4857053,78.0366733 C51.8504585,78.0366733 46.4664557,72.6097238 46.4664557,65.9155631 C46.4664557,59.2232482 51.8504585,53.7962987 58.4857053,53.7962987 L58.4857053,53.7962987 Z M72.0895597,44.1283911 C72.0895597,43.0383865 72.9654306,42.1532768 74.0431444,42.1532768 L79.9029853,42.1532768 C80.9797858,42.1532768 81.8574833,43.0383865 81.8574833,44.1283911 L81.8574833,50.0500422 C81.8574833,51.1400468 80.9797858,52.0242335 79.9029853,52.0242335 L74.0431444,52.0242335 C72.9654306,52.0242335 72.0895597,51.1400468 72.0895597,50.0500422 L72.0895597,44.1283911 L72.0895597,44.1283911 Z M82.2392498,34.2574344 L34.5896835,34.2574344 C30.4852376,34.2574344 27.1607643,37.6114369 27.1607643,41.7490245 L27.1607643,89.9353525 C27.1607643,94.073863 30.4852376,97.4278655 34.5896835,97.4278655 L82.2392498,97.4278655 C86.3436957,97.4278655 89.6709089,94.073863 89.6709089,89.9353525 L89.6709089,41.7490245 C89.6709089,37.6114369 86.3436957,34.2574344 82.2392498,34.2574344 L82.2392498,34.2574344 Z" id="Stroke-170" stroke-width="2"></path>
                        </g>
                    </g>
                </g>
            </g>
        </g>
    </g>
</svg>