<?xml version="1.0" encoding="UTF-8"?>
<svg width="467px" height="78px" viewBox="0 0 467 78" version="1.1" xmlns="http://www.w3.org/2000/svg" xmlns:xlink="http://www.w3.org/1999/xlink">
    <!-- Generator: Sketch 41 (35326) - http://www.bohemiancoding.com/sketch -->
    <title>Page 1</title>
    <desc>Created with Sketch.</desc>
    <defs>
        <polygon id="path-1" points="78.0151 0.764 0.7791 0.764 0.7791 77.9997 78.0151 77.9997 78.0151 0.764"></polygon>
        <polygon id="path-3" points="21.721 34.9098 21.721 0.3938 0.4541 0.3938 0.4541 34.9098 21.721 34.9098"></polygon>
    </defs>
    <g id="Page-1" stroke="none" stroke-width="1" fill="none" fill-rule="evenodd">
        <g transform="translate(0.000000, -1.000000)">
            <path d="M209.6227,59.8213 C208.5187,59.8213 207.6227,58.9253 207.6227,57.8213 L207.6227,15.0273 C207.6227,13.9233 208.5187,13.0273 209.6227,13.0273 C210.7267,13.0273 211.6227,13.9233 211.6227,15.0273 L211.6227,57.8213 C211.6227,58.9253 210.7267,59.8213 209.6227,59.8213" id="Fill-1" fill="#FFFFFF"></path>
            <path d="M235.7633,52.7529 L185.0313,52.7529 C183.9263,52.7529 183.0313,51.8569 183.0313,50.7529 C183.0313,49.6489 183.9263,48.7529 185.0313,48.7529 L235.7633,48.7529 C236.8673,48.7529 237.7633,49.6489 237.7633,50.7529 C237.7633,51.8569 236.8673,52.7529 235.7633,52.7529" id="Fill-3" fill="#FFFFFF"></path>
            <path d="M209.4899,52.9062 C208.9779,52.9062 208.4679,52.7122 208.0769,52.3212 C207.2959,51.5412 207.2949,50.2742 208.0749,49.4932 L228.1709,29.3652 C228.9499,28.5822 230.2159,28.5802 230.9989,29.3632 C231.7799,30.1432 231.7809,31.4102 231.0009,32.1912 L210.9049,52.3192 C210.5139,52.7112 210.0029,52.9062 209.4899,52.9062" id="Fill-5" fill="#FFFFFF"></path>
            <path d="M209.4899,52.9062 C208.9779,52.9062 208.4659,52.7112 208.0749,52.3202 L188.3589,32.5882 C187.5789,31.8052 187.5789,30.5402 188.3599,29.7592 C189.1409,28.9792 190.4079,28.9782 191.1889,29.7602 L210.9049,49.4922 C211.6849,50.2742 211.6849,51.5402 210.9039,52.3212 C210.5129,52.7112 210.0019,52.9062 209.4899,52.9062" id="Fill-7" fill="#FFFFFF"></path>
            <path d="M197.3288,59.8213 C196.6328,59.8213 195.9568,59.4583 195.5888,58.8093 C195.0428,57.8493 195.3788,56.6293 196.3388,56.0833 L208.5018,49.1683 C209.4628,48.6213 210.6828,48.9583 211.2278,49.9183 C211.7738,50.8783 211.4378,52.0983 210.4778,52.6443 L198.3148,59.5593 C198.0038,59.7373 197.6638,59.8213 197.3288,59.8213" id="Fill-9" fill="#FFFFFF"></path>
            <path d="M221.9157,60.208 C221.5717,60.208 221.2227,60.119 220.9047,59.933 L208.4777,52.631 C207.5237,52.071 207.2057,50.846 207.7657,49.894 C208.3247,48.94 209.5527,48.623 210.5027,49.182 L222.9307,56.483 C223.8837,57.043 224.2017,58.269 223.6427,59.221 C223.2697,59.855 222.6017,60.208 221.9157,60.208" id="Fill-11" fill="#FFFFFF"></path>
            <g id="Group-15" transform="translate(171.000000, 0.236300)">
                <mask id="mask-2" fill="white">
                    <use xlink:href="#path-1"></use>
                </mask>
                <g id="Clip-14"></g>
                <path d="M39.3971,4.7637 C20.3081,4.7637 4.7791,20.2927 4.7791,39.3817 C4.7791,58.4707 20.3081,73.9997 39.3971,73.9997 C58.4861,73.9997 74.0151,58.4707 74.0151,39.3817 C74.0151,20.2927 58.4861,4.7637 39.3971,4.7637 M39.3971,77.9997 C18.1031,77.9997 0.7791,60.6757 0.7791,39.3817 C0.7791,18.0877 18.1031,0.7637 39.3971,0.7637 C60.6911,0.7637 78.0151,18.0877 78.0151,39.3817 C78.0151,60.6757 60.6911,77.9997 39.3971,77.9997" id="Fill-13" fill="#FFFFFF" mask="url(#mask-2)"></path>
            </g>
            <path d="M24.1465,47.8802 C24.3385,47.7362 24.6265,47.7362 24.8185,47.8802 L28.6115,51.7212 C28.8025,51.8642 28.8025,52.1522 28.6115,52.2972 C25.6345,55.2732 21.4585,57.1462 16.8015,57.1462 C7.5845,57.1462 0.0005,50.4732 0.0005,40.0082 C0.0005,29.9752 6.9605,22.5822 16.8015,22.5822 C21.4585,22.5822 25.6345,24.4062 28.6115,27.4312 C28.8025,27.5742 28.8025,27.8622 28.6115,28.0072 L24.8185,31.7992 C24.6265,31.9432 24.3385,31.9432 24.1465,31.7992 C22.2265,29.9272 19.6345,28.7272 16.8015,28.7272 C10.3695,28.7272 6.4815,33.6712 6.4815,40.0082 C6.4815,46.7762 11.0895,50.9522 16.8015,50.9522 C19.6345,50.9522 22.2265,49.8012 24.1465,47.8802" id="Fill-16" fill="#FFFFFF"></path>
            <path d="M41.2324,47.2083 L48.0014,47.2083 L44.6414,37.1273 L41.2324,47.2083 Z M50.0654,52.8733 L39.1694,52.8733 L37.8724,56.4253 C37.8244,56.5693 37.6324,56.6653 37.4404,56.6653 L31.5364,56.6653 C31.1524,56.6653 30.9604,56.4253 31.1034,56.1373 L44.2094,22.3423 C44.3534,22.0063 44.9284,22.0063 45.0734,22.3423 L58.1784,56.1373 C58.3224,56.4253 58.1294,56.6653 57.7944,56.6653 L51.8414,56.6653 C51.6984,56.6653 51.5054,56.5693 51.4584,56.4253 L50.0654,52.8733 Z" id="Fill-18" fill="#FFFFFF"></path>
            <path d="M89.9072,56.2815 C89.9072,56.4725 89.7152,56.6655 89.4272,56.6655 L83.9542,56.6655 C83.8582,56.6655 83.6182,56.6175 83.5702,56.5215 L68.2092,34.1515 L68.2092,56.2815 C68.2092,56.4725 68.0162,56.6655 67.7772,56.6655 L62.3042,56.6655 C62.0162,56.6655 61.8722,56.4725 61.8722,56.2815 L61.8722,23.3985 C61.8722,23.2065 62.0162,23.0135 62.3042,23.0135 L67.8252,23.0135 C67.9212,23.0135 68.1132,23.0625 68.1612,23.1585 L83.5702,45.7195 L83.5702,23.3985 C83.5702,23.2065 83.7622,23.0135 84.0512,23.0135 L89.4272,23.0135 C89.7152,23.0135 89.9072,23.2065 89.9072,23.3985 L89.9072,56.2815 Z" id="Fill-20" fill="#FFFFFF"></path>
            <path d="M125.5225,56.2815 C125.5225,56.4725 125.3305,56.6655 125.0425,56.6655 L119.5695,56.6655 C119.4735,56.6655 119.2335,56.6175 119.1855,56.5215 L103.8245,34.1515 L103.8245,56.2815 C103.8245,56.4725 103.6315,56.6655 103.3925,56.6655 L97.9195,56.6655 C97.6315,56.6655 97.4875,56.4725 97.4875,56.2815 L97.4875,23.3985 C97.4875,23.2065 97.6315,23.0135 97.9195,23.0135 L103.4405,23.0135 C103.5365,23.0135 103.7285,23.0625 103.7765,23.1585 L119.1855,45.7195 L119.1855,23.3985 C119.1855,23.2065 119.3775,23.0135 119.6665,23.0135 L125.0425,23.0135 C125.3305,23.0135 125.5225,23.2065 125.5225,23.3985 L125.5225,56.2815 Z" id="Fill-22" fill="#FFFFFF"></path>
            <path d="M139.8711,47.2083 L146.6401,47.2083 L143.2801,37.1273 L139.8711,47.2083 Z M148.7041,52.8733 L137.8081,52.8733 L136.5111,56.4253 C136.4631,56.5693 136.2711,56.6653 136.0791,56.6653 L130.1751,56.6653 C129.7911,56.6653 129.5991,56.4253 129.7421,56.1373 L142.8481,22.3423 C142.9921,22.0063 143.5671,22.0063 143.7121,22.3423 L156.8171,56.1373 C156.9611,56.4253 156.7681,56.6653 156.4331,56.6653 L150.4801,56.6653 C150.3371,56.6653 150.1441,56.5693 150.0971,56.4253 L148.7041,52.8733 Z" id="Fill-24" fill="#FFFFFF"></path>
            <path d="M286.1465,47.8802 C286.3385,47.7362 286.6265,47.7362 286.8185,47.8802 L290.6115,51.7212 C290.8025,51.8642 290.8025,52.1522 290.6115,52.2972 C287.6345,55.2732 283.4585,57.1462 278.8015,57.1462 C269.5845,57.1462 262.0005,50.4732 262.0005,40.0082 C262.0005,29.9752 268.9605,22.5822 278.8015,22.5822 C283.4585,22.5822 287.6345,24.4062 290.6115,27.4312 C290.8025,27.5742 290.8025,27.8622 290.6115,28.0072 L286.8185,31.7992 C286.6265,31.9432 286.3385,31.9432 286.1465,31.7992 C284.2265,29.9272 281.6345,28.7272 278.8015,28.7272 C272.3695,28.7272 268.4815,33.6712 268.4815,40.0082 C268.4815,46.7762 273.0895,50.9522 278.8015,50.9522 C281.6345,50.9522 284.2265,49.8012 286.1465,47.8802" id="Fill-26" fill="#FFFFFF"></path>
            <path d="M302.7529,29.1585 L302.7529,36.9355 L315.8579,36.9355 C316.1459,36.9355 316.2899,37.1275 316.2899,37.3195 L316.2899,42.5525 C316.2899,42.7445 316.1459,42.9355 315.8579,42.9355 L302.7529,42.9355 L302.7529,50.6165 L318.5939,50.6165 C318.8819,50.6165 319.0739,50.8085 319.0739,51.0015 L319.0739,56.2815 C319.0739,56.4725 318.8819,56.6655 318.5939,56.6655 L296.8489,56.6655 C296.6079,56.6655 296.4159,56.4725 296.4159,56.2815 L296.4159,23.4465 C296.4159,23.2545 296.6079,23.0625 296.8489,23.0625 L318.5939,23.0625 C318.8819,23.0625 319.0739,23.2545 319.0739,23.4465 L319.0739,28.7745 C319.0739,28.9675 318.8819,29.1585 318.5939,29.1585 L302.7529,29.1585 Z" id="Fill-28" fill="#FFFFFF"></path>
            <path d="M352.7227,56.2815 C352.7227,56.4725 352.5307,56.6655 352.2427,56.6655 L346.7697,56.6655 C346.6737,56.6655 346.4337,56.6175 346.3857,56.5215 L331.0247,34.1515 L331.0247,56.2815 C331.0247,56.4725 330.8317,56.6655 330.5927,56.6655 L325.1197,56.6655 C324.8317,56.6655 324.6877,56.4725 324.6877,56.2815 L324.6877,23.3985 C324.6877,23.2065 324.8317,23.0135 325.1197,23.0135 L330.6407,23.0135 C330.7367,23.0135 330.9287,23.0625 330.9767,23.1585 L346.3857,45.7195 L346.3857,23.3985 C346.3857,23.2065 346.5777,23.0135 346.8667,23.0135 L352.2427,23.0135 C352.5307,23.0135 352.7227,23.2065 352.7227,23.3985 L352.7227,56.2815 Z" id="Fill-30" fill="#FFFFFF"></path>
            <path d="M377.4404,28.7268 C377.4404,28.9188 377.2494,29.0628 376.9614,29.0628 L370.5764,29.0628 L370.5764,56.2818 C370.5764,56.4728 370.4314,56.6648 370.1434,56.6648 L364.7194,56.6648 C364.4314,56.6648 364.2874,56.4728 364.2874,56.2818 L364.2874,29.0628 L357.9034,29.0628 C357.6154,29.0628 357.4224,28.9188 357.4224,28.7268 L357.4224,23.7348 C357.4224,23.5418 357.6154,23.3508 357.9034,23.3508 L376.9614,23.3508 C377.2494,23.3508 377.4404,23.5418 377.4404,23.7348 L377.4404,28.7268 Z" id="Fill-32" fill="#FFFFFF"></path>
            <path d="M381.7588,23.4466 C381.7588,23.2546 381.9508,23.0626 382.2388,23.0626 L387.6628,23.0626 C387.9508,23.0626 388.1438,23.2546 388.1438,23.4466 L388.1438,56.2816 C388.1438,56.4726 387.9508,56.6656 387.6628,56.6656 L382.2388,56.6656 C381.9508,56.6656 381.7588,56.4726 381.7588,56.2816 L381.7588,23.4466 Z" id="Fill-34" fill="#FFFFFF"></path>
            <path d="M402.0156,47.2083 L408.7846,47.2083 L405.4246,37.1273 L402.0156,47.2083 Z M410.8486,52.8733 L399.9526,52.8733 L398.6566,56.4253 C398.6076,56.5693 398.4156,56.6653 398.2236,56.6653 L392.3196,56.6653 C391.9356,56.6653 391.7436,56.4253 391.8866,56.1373 L404.9926,22.3423 C405.1366,22.0063 405.7116,22.0063 405.8566,22.3423 L418.9616,56.1373 C419.1056,56.4253 418.9126,56.6653 418.5776,56.6653 L412.6246,56.6653 C412.4806,56.6653 412.2886,56.5693 412.2416,56.4253 L410.8486,52.8733 Z" id="Fill-36" fill="#FFFFFF"></path>
            <path d="M440.5127,50.4729 C440.7997,50.4729 440.9917,50.6639 440.9917,50.8569 L440.9917,56.2819 C440.9917,56.4729 440.7997,56.6649 440.5127,56.6649 L423.0387,56.6649 C422.7507,56.6649 422.5587,56.4729 422.5587,56.2819 L422.5587,23.4469 C422.5587,23.2539 422.7507,23.0629 423.0387,23.0629 L428.4627,23.0629 C428.7507,23.0629 428.9437,23.2539 428.9437,23.4469 L428.9437,50.4729 L440.5127,50.4729 Z" id="Fill-38" fill="#FFFFFF"></path>
            <g id="Group-42" transform="translate(445.000000, 22.236300)">
                <mask id="mask-4" fill="white">
                    <use xlink:href="#path-3"></use>
                </mask>
                <g id="Clip-41"></g>
                <path d="M0.4541,25.0198 C0.4541,24.8288 0.6461,24.6838 0.9341,24.6838 L6.3591,24.6838 C6.5991,24.6838 6.8391,24.8288 6.8391,25.0198 C6.9341,27.5168 8.9031,28.7158 11.1111,28.7158 C13.3671,28.7158 15.3841,27.2768 15.3841,24.9238 C15.3841,22.4278 13.0311,20.8438 11.1111,20.7478 C10.8231,20.7478 8.4711,20.7478 6.0221,19.6438 C2.4711,17.9628 0.4541,14.6998 0.4541,10.7148 C0.4541,4.2828 5.5911,0.3938 11.1111,0.3938 C16.9681,0.3938 21.5281,4.3308 21.6241,10.0908 C21.6241,10.2828 21.4331,10.4748 21.1441,10.4748 L15.7671,10.4748 C15.5271,10.4748 15.2881,10.2828 15.2881,10.0908 C15.1911,7.6908 13.3191,6.5388 11.1111,6.5388 C8.7591,6.5388 6.8391,7.8828 6.8391,10.7148 C6.8391,13.1638 8.9031,14.7478 11.1111,14.7478 C11.3511,14.7478 13.7031,14.7478 16.1031,15.8518 C19.7521,17.5318 21.7211,20.9878 21.7211,24.9238 C21.7211,31.4048 16.5841,34.9098 11.1111,34.9098 C5.2071,34.7648 0.5511,31.3568 0.4541,25.0198" id="Fill-40" fill="#FFFFFF" mask="url(#mask-4)"></path>
            </g>
        </g>
    </g>
</svg>