<?xml version="1.0" encoding="utf-8"?>
<!-- Generator: Adobe Illustrator 18.0.0, SVG Export Plug-In . SVG Version: 6.00 Build 0)  -->
<!DOCTYPE svg PUBLIC "-//W3C//DTD SVG 1.1//EN" "http://www.w3.org/Graphics/SVG/1.1/DTD/svg11.dtd">
<svg version="1.1" id="Layer_1" xmlns="http://www.w3.org/2000/svg" xmlns:xlink="http://www.w3.org/1999/xlink" x="0px" y="0px"
	 viewBox="0 0 431.1 98.4" enable-background="new 0 0 431.1 98.4" xml:space="preserve">
<g>
	<g>
		<path fill="#FFFFFF" d="M194.7,85.2c0,0-21.9-2.6-25.4-3.6c-0.6-0.2-1.6-0.5-2.8-1c3,5,7.2,9.2,12.2,12.3c2.1-1.6,4.1-3,5.2-3.6
			C186.8,87.8,194.7,85.2,194.7,85.2z"/>
		<path fill="#FFFFFF" d="M172.8,73.2c4.7,1.4,9.7,1.9,16,5.2c-8.1-6.9-14.1-13.1-23.7-24.5c-0.6-1-1.2-2-1.8-3
			c-1.4,3.8-2.2,7.4-2.2,10.6c0,4.1,0.7,8,1.9,11.7C168.3,73.1,172.8,73.1,172.8,73.2z"/>
		<path fill="#FFFFFF" d="M207.4,78.3c6.3-3.3,11.3-3.8,16-5.2c0.1,0,4.6,0,9.9,0c1.2-3.7,1.9-7.6,1.9-11.7c0-3.2-0.8-6.8-2.2-10.6
			c-0.6,1-1.2,2-1.8,3C221.5,65.2,215.4,71.4,207.4,78.3z"/>
		<path fill="#FFFFFF" d="M226.9,81.6c-3.4,1-25.4,3.6-25.4,3.6s7.9,2.6,10.8,4.1c1.1,0.6,3.1,2,5.2,3.6c5-3.1,9.2-7.3,12.2-12.3
			C228.5,81.1,227.5,81.4,226.9,81.6z"/>
		<path fill="#FFFFFF" d="M196.7,87.9c0,0-6,6.5-8.6,8.1c-0.3,0.2-0.9,0.4-1.6,0.6c3.2,1.1,6.6,1.7,10.2,1.8V87.9z"/>
		<path fill="#FFFFFF" d="M200.3,77.7c5.3-14.7,12.2-25.4,19.1-33.1c2.7-1.9,5.3-3.8,7.9-5.5c-10-17.7-26.2-36.1-29-39
			C199.9,5.5,210,43.6,200.3,77.7z"/>
		<path fill="#FFFFFF" d="M208.1,96c-2.6-1.5-8.6-8.1-8.6-8.1v10.5c3.5-0.1,6.9-0.8,10.2-1.8C208.9,96.4,208.4,96.2,208.1,96z"/>
		<path fill="#FFFFFF" d="M168.9,39c2.6,1.8,5.3,3.7,7.9,5.6c6.9,7.7,13.8,18.4,19.1,33.1c-9.7-34.1,0.5-72.1,2-77.7
			C195.1,2.9,178.8,21.3,168.9,39z"/>
	</g>
	
		<text transform="matrix(1 0 0 1 -2.441406e-04 73.0517)" fill="#FFFFFF" font-family="'PlayfairDisplay-Regular'" font-size="50.7064">Canna</text>
	<text transform="matrix(1 0 0 1 245.0808 73.0517)" fill="#FFFFFF" font-family="'PlayfairDisplay-Regular'" font-size="50.7064">Centials</text>
</g>
</svg>
