<?xml version="1.0" encoding="UTF-8"?>
<svg width="121px" height="136px" viewBox="0 0 121 136" version="1.1" xmlns="http://www.w3.org/2000/svg" xmlns:xlink="http://www.w3.org/1999/xlink">
    <!-- Generator: Sketch 41 (35326) - http://www.bohemiancoding.com/sketch -->
    <title>Facebook</title>
    <desc>Created with Sketch.</desc>
    <defs></defs>
    <g id="Page-1" stroke="none" stroke-width="1" fill="none" fill-rule="evenodd">
        <g id="Tablet-Portrait" transform="translate(-172.000000, -5230.000000)" stroke="#FFFFFF">
            <g id="Footer" transform="translate(-557.000000, 5015.000000)">
                <g id="Social-Icons" transform="translate(729.000000, 214.000000)">
                    <g id="Group-3">
                        <g id="Facebook" transform="translate(2.000000, 3.181377)">
                            <path d="M110.771816,102.814759 L63.8401167,130.196857 C60.4489712,132.175664 56.27146,132.175664 52.8803145,130.196857 L5.94952858,102.814759 C2.55929646,100.835953 0.469627521,97.1810685 0.469627521,93.2234563 L0.469627521,38.4601823 C0.469627521,34.503493 2.55929646,30.8476857 5.94952858,28.8698026 L52.8803145,1.48862703 C56.27146,-0.490179065 60.4489712,-0.490179065 63.8401167,1.48862703 L110.771816,28.8698026 C114.162961,30.8476857 116.251717,34.503493 116.251717,38.4601823 L116.251717,93.2234563 C116.251717,97.1810685 114.162961,100.835953 110.771816,102.814759 L110.771816,102.814759 Z" id="Stroke-185" stroke-width="4" stroke-linecap="round"></path>
                            <path d="M62.1327621,100.663361 L62.1327621,65.8598168 L71.5390123,65.8598168 L73.3994387,54.9856128 L62.1327621,54.9856128 L62.1327621,47.1045376 C62.1327621,44.5645776 63.7593794,41.8963274 66.0819442,41.8963274 L72.4842952,41.8963274 L72.4842952,31.0212004 L64.6370769,31.0212004 C52.3584453,31.5205167 49.8367775,38.7066101 49.6166681,46.256346 L49.5938352,54.9856128 L43.3220885,54.9856128 L43.3220885,65.8598168 L49.5938352,65.8598168 L49.5938352,100.663361 L62.1327621,100.663361 Z" id="Stroke-180" stroke-width="2"></path>
                        </g>
                    </g>
                </g>
            </g>
        </g>
    </g>
</svg>