<?xml version="1.0" encoding="UTF-8"?>
<svg width="122px" height="137px" viewBox="0 0 122 137" version="1.1" xmlns="http://www.w3.org/2000/svg" xmlns:xlink="http://www.w3.org/1999/xlink">
    <!-- Generator: Sketch 41 (35326) - http://www.bohemiancoding.com/sketch -->
    <title>Group</title>
    <desc>Created with Sketch.</desc>
    <defs></defs>
    <g id="Page-1" stroke="none" stroke-width="1" fill="none" fill-rule="evenodd">
        <g id="Tablet-Portrait" transform="translate(-475.000000, -5229.000000)" stroke="#FFFFFF">
            <g id="Footer" transform="translate(-557.000000, 5015.000000)">
                <g id="Social-Icons" transform="translate(729.000000, 214.000000)">
                    <g id="Group-3">
                        <g id="Group" transform="translate(305.951845, 2.000000)">
                            <path d="M111.371529,103.86017 L63.9848436,131.521903 C60.5608222,133.520918 56.3428115,133.520918 52.9187901,131.521903 L5.53302676,103.86017 C2.10992754,101.861155 0,98.1689459 0,94.1709172 L0,38.8483821 C0,34.8512858 2.10992754,31.1581441 5.53302676,29.1600621 L52.9187901,1.49926075 C56.3428115,-0.499753583 60.5608222,-0.499753583 63.9848436,1.49926075 L111.371529,29.1600621 C114.79555,31.1581441 116.904556,34.8512858 116.904556,38.8483821 L116.904556,94.1709172 C116.904556,98.1689459 114.79555,101.861155 111.371529,103.86017 L111.371529,103.86017 Z" id="Stroke-183" stroke-width="4" stroke-linecap="round"></path>
                            <path d="M88.4832656,40.962521 C85.999215,42.4672121 83.2546578,43.5622877 80.3225727,44.1499568 C77.9863273,41.5944728 74.6459305,39.999371 70.9498774,39.999371 C63.8626196,39.999371 58.1129985,45.8871324 58.1129985,53.1495043 C58.1129985,54.1809235 58.2238524,55.1818983 58.4437126,56.1450482 C47.7721794,55.595204 38.3098772,50.3652261 31.9718068,42.3998654 C30.8669631,44.3483066 30.235096,46.6104174 30.235096,49.0182922 C30.235096,53.5784935 32.5020578,57.6045341 35.9477658,59.9635134 C33.8461611,59.8989343 31.8618767,59.3011171 30.1279373,58.3232063 L30.1279373,58.4846538 C30.1279373,64.858603 34.5547021,70.1753013 40.4336527,71.3792387 C39.3565225,71.6882955 38.2221179,71.84144 37.0489143,71.84144 C36.223053,71.84144 35.4156672,71.7630226 34.6332236,71.6089555 C36.2683183,76.8306305 41.005474,80.6343347 46.6276131,80.7367385 C42.2350282,84.2655206 36.6932581,86.3698741 30.6794353,86.3698741 C29.6429516,86.3698741 28.6175532,86.3089853 27.6152494,86.1881303 C33.299282,89.9134171 40.0512068,92.0915751 47.2992028,92.0915751 C70.9240115,92.0915751 83.839412,72.0563959 83.839412,54.6772594 C83.839412,54.1052738 83.826479,53.5332882 83.8061558,52.9723733 C86.3142248,51.1180329 88.4934272,48.8042589 90.2098148,46.1657447 C87.9095968,47.2119248 85.4320127,47.9195264 82.8361844,48.2359636 C85.4883634,46.6104174 87.5243796,44.032792 88.4832656,40.962521 L88.4832656,40.962521 Z" id="Stroke-181" stroke-width="2"></path>
                        </g>
                    </g>
                </g>
            </g>
        </g>
    </g>
</svg>